<svg width="14" height="12" viewBox="0 0 14 12" fill="none" xmlns="http://www.w3.org/2000/svg">
<path d="M7.00065 8.22252C7.70789 8.22252 8.38617 7.98839 8.88627 7.57165C9.38637 7.1549 9.66732 6.58967 9.66732 6.0003C9.66732 5.41093 9.38637 4.8457 8.88627 4.42895C8.38617 4.0122 7.70789 3.77808 7.00065 3.77808C6.29341 3.77808 5.61513 4.0122 5.11503 4.42895C4.61494 4.8457 4.33398 5.41093 4.33398 6.0003C4.33398 6.58967 4.61494 7.1549 5.11503 7.57165C5.61513 7.98839 6.29341 8.22252 7.00065 8.22252Z" stroke="#FFB10A" stroke-linecap="round" stroke-linejoin="round"/>
<path d="M1 8.22222V3.77778C1 3.04107 1.35119 2.33453 1.97631 1.81359C2.60143 1.29266 3.44928 1 4.33333 1H9.66667C10.5507 1 11.3986 1.29266 12.0237 1.81359C12.6488 2.33453 13 3.04107 13 3.77778V8.22222C13 8.95894 12.6488 9.66547 12.0237 10.1864C11.3986 10.7073 10.5507 11 9.66667 11H4.33333C3.44928 11 2.60143 10.7073 1.97631 10.1864C1.35119 9.66547 1 8.95894 1 8.22222Z" stroke="#FFB10A"/>
<path d="M10.6689 2.95211L10.6774 2.94385" stroke="#FFB10A" stroke-linecap="round" stroke-linejoin="round"/>
</svg>
