<!DOCTYPE svg PUBLIC "-//W3C//DTD SVG 1.1//EN" "http://www.w3.org/Graphics/SVG/1.1/DTD/svg11.dtd">

<!-- Uploaded to: SVG Repo, www.svgrepo.com, Transformed by: SVG Repo Mixer Tools -->
<svg width="25px" height="25px" viewBox="-2.4 -2.4 28.80 28.80" xmlns="http://www.w3.org/2000/svg" fill="#ffffff" stroke="#ffffff" stroke-width="0.00024000000000000003">

<g id="SVGRepo_bgCarrier" stroke-width="0"/>

<g id="SVGRepo_tracerCarrier" stroke-linecap="round" stroke-linejoin="round" stroke="#fffff" stroke-width="0.048"/>

<g id="SVGRepo_iconCarrier"> <g> <path fill="none" d="M0 0h24v24H0z"/> <path d="M3.161 4.469a6.5 6.5 0 0 1 8.84-.328 6.5 6.5 0 0 1 9.178 9.154l-7.765 7.79a2 2 0 0 1-2.719.102l-.11-.101-7.764-7.791a6.5 6.5 0 0 1 .34-8.826zm1.414 1.414a4.5 4.5 0 0 0-.146 6.21l.146.154L12 19.672l5.303-5.304-3.535-3.535-1.06 1.06a3 3 0 1 1-4.244-4.242l2.102-2.103a4.501 4.501 0 0 0-5.837.189l-.154.146zm8.486 2.828a1 1 0 0 1 1.414 0l4.242 4.242.708-.706a4.5 4.5 0 0 0-6.211-6.51l-.153.146-3.182 3.182a1 1 0 0 0-.078 1.327l.078.087a1 1 0 0 0 1.327.078l.087-.078 1.768-1.768z"/> </g> </g>

</svg>