<svg width="12" height="12" viewBox="0 0 12 12" fill="none" xmlns="http://www.w3.org/2000/svg">
<path d="M6.00071 6.85676C5.46131 6.85676 4.93402 6.73108 4.48552 6.49562C4.03702 6.26016 3.68746 5.9255 3.48104 5.53394C3.27462 5.14238 3.22061 4.71153 3.32584 4.29585C3.43107 3.88018 3.69082 3.49836 4.07224 3.19867C4.45365 2.89899 4.93961 2.6949 5.46865 2.61222C5.99768 2.52954 6.54605 2.57197 7.04439 2.73416C7.54273 2.89635 7.96868 3.171 8.26835 3.5234C8.56803 3.87579 8.72798 4.29009 8.72798 4.7139C8.72711 5.28202 8.4395 5.82666 7.92822 6.22838C7.41695 6.6301 6.72376 6.85608 6.00071 6.85676ZM6.00071 3.42819C5.67707 3.42819 5.36069 3.50359 5.09159 3.64487C4.8225 3.78615 4.61276 3.98695 4.48891 4.22188C4.36505 4.45682 4.33265 4.71533 4.39579 4.96473C4.45893 5.21414 4.61478 5.44323 4.84363 5.62304C5.07248 5.80285 5.36405 5.9253 5.68147 5.97491C5.99889 6.02452 6.32791 5.99906 6.62692 5.90175C6.92592 5.80444 7.18149 5.63964 7.36129 5.42821C7.5411 5.21677 7.63707 4.96819 7.63707 4.7139C7.63664 4.37302 7.4641 4.04619 7.15731 3.80514C6.85053 3.5641 6.43457 3.42853 6.00071 3.42819Z" fill="#FFB10A"/>
<path d="M6 12L1.39855 7.73614C1.33461 7.67212 1.27134 7.60769 1.20873 7.54286C0.422723 6.72934 -0.00189883 5.73567 6.38338e-06 4.71429C6.38338e-06 3.46398 0.632147 2.26488 1.75736 1.38078C2.88258 0.496682 4.4087 0 6 0C7.5913 0 9.11742 0.496682 10.2426 1.38078C11.3679 2.26488 12 3.46398 12 4.71429C12.0019 5.7352 11.5775 6.72842 10.7918 7.54157L10.7913 7.54286C10.7913 7.54286 10.6276 7.71171 10.6031 7.73443L6 12ZM2.07982 7.02643C2.07982 7.02643 2.20691 7.15843 2.23582 7.18671L6 10.6749L9.76909 7.182C9.79309 7.15843 9.92072 7.02557 9.92127 7.02514C10.5633 6.36048 10.9103 5.54873 10.9091 4.71429C10.9091 3.69131 10.3919 2.71023 9.47125 1.98687C8.55062 1.26352 7.30197 0.857143 6 0.857143C4.69803 0.857143 3.44938 1.26352 2.52875 1.98687C1.60812 2.71023 1.09091 3.69131 1.09091 4.71429C1.08977 5.54925 1.43716 6.36146 2.07982 7.02643Z" fill="#FFB10A"/>
</svg>
