<svg width="12" height="10" viewBox="0 0 12 10" fill="none" xmlns="http://www.w3.org/2000/svg">
<path d="M10.2513 1.45503C9.69841 0.99199 9.03991 0.624862 8.31415 0.375054C7.5884 0.125247 6.80992 -0.00224005 6.02412 2.97847e-05C2.73166 2.97847e-05 0.0482413 2.22502 0.0482413 4.95501C0.0482413 5.83001 0.325628 6.68001 0.844221 7.43001L0 10L3.16583 9.31C4.0402 9.705 5.02311 9.915 6.02412 9.915C9.31658 9.915 12 7.69001 12 4.96001C12 3.63502 11.3789 2.39002 10.2513 1.45503ZM6.02412 9.075C5.13166 9.075 4.25729 8.875 3.49146 8.5L3.31055 8.41L1.42915 8.82L1.92965 7.30001L1.80905 7.14501C1.31321 6.48849 1.04993 5.72963 1.04925 4.95501C1.04925 2.68502 3.2804 0.835027 6.01809 0.835027C7.34472 0.835027 8.59296 1.26503 9.52764 2.04502C9.99044 2.427 10.3572 2.88135 10.6067 3.38173C10.8561 3.88211 10.9833 4.41857 10.9809 4.96001C10.993 7.23001 8.76181 9.075 6.02412 9.075ZM8.74975 5.99501C8.59899 5.93501 7.86332 5.63501 7.73065 5.59001C7.59196 5.55001 7.49548 5.53001 7.39296 5.65001C7.29045 5.77501 7.00703 6.05501 6.92261 6.13501C6.83819 6.22001 6.74774 6.23001 6.59698 6.16501C6.44623 6.10501 5.96382 5.97001 5.39698 5.55001C4.95075 5.22001 4.65528 4.81502 4.56482 4.69002C4.4804 4.56502 4.55276 4.50002 4.63116 4.43502C4.69749 4.38002 4.78191 4.29002 4.85427 4.22002C4.92663 4.15002 4.95678 4.09502 5.00502 4.01502C5.05327 3.93002 5.02914 3.86002 4.99296 3.80002C4.95678 3.74002 4.65528 3.13002 4.53467 2.88002C4.41407 2.64002 4.28744 2.67002 4.19698 2.66502H3.90754C3.80502 2.66502 3.64824 2.69502 3.50955 2.82002C3.37688 2.94502 2.99095 3.24502 2.99095 3.85502C2.99095 4.46502 3.52764 5.05501 3.6 5.13501C3.67236 5.22001 4.65528 6.47001 6.15075 7.00501C6.50653 7.13501 6.78392 7.21001 7.001 7.26501C7.35678 7.36001 7.68241 7.34501 7.94171 7.31501C8.23115 7.28001 8.82814 7.01501 8.94874 6.72501C9.07538 6.43501 9.07538 6.19001 9.03316 6.13501C8.99095 6.08001 8.9005 6.05501 8.74975 5.99501Z" fill="#FFB10A"/>
</svg>
